<svg width="905" height="104" viewBox="0 0 905 104" fill="none" xmlns="http://www.w3.org/2000/svg">
<path d="M50.55 103C34.6844 103 22.1871 97.9378 13.6547 89.0353C5.11958 80.1298 0.5 67.3271 0.5 51.75H-0.5C-0.5 67.5229 4.18042 80.5952 12.9328 89.7272C21.688 98.8622 34.4656 104 50.55 104V103ZM0.5 51.75C0.5 36.1729 5.11958 23.3702 13.6547 14.4647C22.1871 5.56223 34.6844 0.5 50.55 0.5V-0.5C34.4656 -0.5 21.688 4.63777 12.9328 13.7728C4.18042 22.9048 -0.5 35.9771 -0.5 51.75H0.5ZM50.55 0.5C66.34 0.5 78.7998 5.56181 87.3137 14.4643C95.8304 23.3699 100.45 36.1729 100.45 51.75H101.45C101.45 35.9771 96.7696 22.9051 88.0364 13.7732C79.3002 4.63818 66.56 -0.5 50.55 -0.5V0.5ZM100.45 51.75C100.45 67.3271 95.8304 80.1301 87.3137 89.0357C78.7998 97.9382 66.34 103 50.55 103V104C66.56 104 79.3002 98.8618 88.0364 89.7268C96.7696 80.5949 101.45 67.5229 101.45 51.75H100.45ZM50.55 76.55C58.2959 76.55 63.5277 75.3174 66.7754 71.4792C69.9978 67.671 71.15 61.4237 71.15 51.75H70.15C70.15 61.4263 68.9772 67.329 66.0121 70.8333C63.0723 74.3076 58.2541 75.55 50.55 75.55V76.55ZM71.15 51.75C71.15 42.0763 69.9978 35.829 66.7754 32.0208C63.5277 28.1826 58.2959 26.95 50.55 26.95V27.95C58.2541 27.95 63.0723 29.1924 66.0121 32.6667C68.9772 36.171 70.15 42.0737 70.15 51.75H71.15ZM50.55 26.95C42.7303 26.95 37.4611 28.1821 34.1943 32.0196C30.9521 35.8282 29.8 42.0766 29.8 51.75H30.8C30.8 42.0734 31.9729 36.1718 34.9557 32.6679C37.9139 29.1929 42.7697 27.95 50.55 27.95V26.95ZM29.8 51.75C29.8 61.4234 30.9521 67.6718 34.1943 71.4804C37.4611 75.3179 42.7303 76.55 50.55 76.55V75.55C42.7697 75.55 37.9139 74.3071 34.9557 70.8321C31.9729 67.3282 30.8 61.4266 30.8 51.75H29.8ZM107.834 24.9V24.4H107.334V24.9H107.834ZM136.034 24.9H136.534V24.4H136.034V24.9ZM160.034 24.9V24.4H159.534V24.9H160.034ZM188.084 24.9H188.584V24.4H188.084V24.9ZM188.084 102V102.5H188.584V102H188.084ZM161.834 102H161.334V102.5H161.834V102ZM161.834 90.3H162.334V89.8H161.834V90.3ZM160.484 90.3V89.8H160.17L160.033 90.0826L160.484 90.3ZM135.284 103C125.429 103 118.721 99.7089 114.464 94.5204C110.193 89.315 108.334 82.1307 108.334 74.25H107.334C107.334 82.2693 109.224 89.71 113.691 95.1546C118.172 100.616 125.188 104 135.284 104V103ZM108.334 74.25V24.9H107.334V74.25H108.334ZM107.834 25.4H136.034V24.4H107.834V25.4ZM135.534 24.9V68.4H136.534V24.9H135.534ZM135.534 68.4C135.534 72.5203 136.008 75.4584 137.894 77.3242C139.776 79.1856 142.931 79.85 147.884 79.85V78.85C142.936 78.85 140.166 78.1644 138.598 76.6133C137.034 75.0666 136.534 72.5296 136.534 68.4H135.534ZM147.884 79.85C152.534 79.85 155.743 79.2972 157.77 77.5747C159.823 75.8294 160.534 73.0028 160.534 68.85H159.534C159.534 72.9472 158.819 75.3706 157.122 76.8128C155.399 78.2778 152.533 78.85 147.884 78.85V79.85ZM160.534 68.85V24.9H159.534V68.85H160.534ZM160.034 25.4H188.084V24.4H160.034V25.4ZM187.584 24.9V102H188.584V24.9H187.584ZM188.084 101.5H161.834V102.5H188.084V101.5ZM162.334 102V90.3H161.334V102H162.334ZM161.834 89.8H160.484V90.8H161.834V89.8ZM160.033 90.0826C155.945 98.5507 146.568 103 135.284 103V104C146.8 104 156.622 99.4493 160.934 90.5174L160.033 90.0826ZM225.107 102V102.5H225.607V102H225.107ZM197.057 102H196.557V102.5H197.057V102ZM197.057 24.9V24.4H196.557V24.9H197.057ZM223.307 24.9H223.807V24.4H223.307V24.9ZM223.307 36.6H222.807V37.1H223.307V36.6ZM224.657 36.6V37.1H224.945L225.089 36.8509L224.657 36.6ZM266.657 62.1V62.6H267.157V62.1H266.657ZM238.457 62.1H237.957V62.6H238.457V62.1ZM225.107 101.5H197.057V102.5H225.107V101.5ZM197.557 102V24.9H196.557V102H197.557ZM197.057 25.4H223.307V24.4H197.057V25.4ZM222.807 24.9V36.6H223.807V24.9H222.807ZM223.307 37.1H224.657V36.1H223.307V37.1ZM225.089 36.8509C229.37 29.4696 236.572 23.9 246.557 23.9V22.9C236.141 22.9 228.643 28.7304 224.224 36.3491L225.089 36.8509ZM246.557 23.9C253.864 23.9 258.721 26.2546 261.773 30.3906C264.848 34.5574 266.157 40.6161 266.157 48.15H267.157C267.157 40.5339 265.84 34.2176 262.578 29.7968C259.293 25.3454 254.099 22.9 246.557 22.9V23.9ZM266.157 48.15V62.1H267.157V48.15H266.157ZM266.657 61.6H238.457V62.6H266.657V61.6ZM238.957 62.1V54.45H237.957V62.1H238.957ZM238.957 54.45C238.957 53.0149 238.891 51.8064 238.702 50.8041C238.512 49.8001 238.193 48.9709 237.663 48.3212C236.587 47.0045 234.795 46.6 232.157 46.6V47.6C234.768 47.6 236.126 48.0205 236.888 48.9538C237.276 49.4291 237.548 50.0811 237.719 50.9896C237.891 51.8999 237.957 53.0351 237.957 54.45H238.957ZM232.157 46.6C230.989 46.6 229.934 46.6372 229.013 46.7869C228.091 46.9369 227.273 47.2044 226.597 47.6869C225.214 48.675 224.607 50.4263 224.607 53.25H225.607C225.607 50.5237 226.199 49.2 227.179 48.5006C227.684 48.1394 228.338 47.91 229.174 47.774C230.011 47.6378 231 47.6 232.157 47.6V46.6ZM224.607 53.25V102H225.607V53.25H224.607ZM294.919 67.05V66.55H294.419V67.05H294.919ZM322.669 67.05H323.169V66.55H322.669V67.05ZM343.669 64.95L343.591 65.4439L343.594 65.4443L343.669 64.95ZM321.769 61.5L321.847 61.0061L321.845 61.0059L321.769 61.5ZM377.569 35.4V35.9H378.069V35.4H377.569ZM349.819 35.4H349.319V35.9H349.819V35.4ZM328.819 36.45L328.73 36.9421L328.731 36.9423L328.819 36.45ZM350.719 40.35L350.631 40.8423L350.632 40.8424L350.719 40.35ZM338.119 103C323.789 103 313.119 99.6409 306.039 93.7409C298.972 87.8517 295.419 79.3781 295.419 69H294.419C294.419 79.6219 298.066 88.3983 305.399 94.5091C312.719 100.609 323.648 104 338.119 104V103ZM295.419 69V67.05H294.419V69H295.419ZM294.919 67.55H322.669V66.55H294.919V67.55ZM322.169 67.05V68.25H323.169V67.05H322.169ZM322.169 68.25C322.169 72.4123 322.922 75.1367 325.601 76.7239C326.904 77.4957 328.622 77.9717 330.831 78.2591C333.043 78.5469 335.788 78.65 339.169 78.65V77.65C335.8 77.65 333.107 77.5468 330.96 77.2675C328.809 76.9877 327.246 76.5356 326.111 75.8635C323.916 74.5633 323.169 72.3376 323.169 68.25H322.169ZM339.169 78.65C344.485 78.65 347.825 78.2442 349.838 77.2276C350.868 76.7073 351.568 76.0201 351.999 75.1435C352.425 74.2799 352.569 73.2744 352.569 72.15H351.569C351.569 73.2006 351.432 74.0325 351.102 74.7018C350.779 75.358 350.251 75.8989 349.387 76.3349C347.613 77.2308 344.502 77.65 339.169 77.65V78.65ZM352.569 72.15C352.569 69.7875 352.192 68.0596 350.786 66.8244C349.427 65.6296 347.188 64.9797 343.744 64.4557L343.594 65.4443C347.05 65.9703 349.011 66.5954 350.126 67.5756C351.196 68.5154 351.569 69.8625 351.569 72.15H352.569ZM343.747 64.4561L321.847 61.0061L321.691 61.9939L343.591 65.4439L343.747 64.4561ZM321.845 61.0059C311.716 59.4418 304.636 55.9893 300.086 51.0548C295.542 46.1256 293.469 39.6583 293.469 31.95H292.469C292.469 39.8417 294.596 46.5743 299.351 51.7327C304.102 56.8857 311.422 60.4082 321.692 61.9941L321.845 61.0059ZM293.469 31.95C293.469 23.1619 296.824 15.3227 303.802 9.66977C310.792 4.00784 321.467 0.5 336.169 0.5V-0.5C321.32 -0.5 310.395 3.04216 303.173 8.89272C295.939 14.7523 292.469 22.8881 292.469 31.95H293.469ZM336.169 0.5C350.115 0.5 360.336 4.00507 367.062 9.7733C373.78 15.5343 377.069 23.6001 377.069 32.85H378.069C378.069 23.3499 374.682 14.9907 367.713 9.01419C360.752 3.04492 350.273 -0.5 336.169 -0.5V0.5ZM377.069 32.85V35.4H378.069V32.85H377.069ZM377.569 34.9H349.819V35.9H377.569V34.9ZM350.319 35.4V33.6H349.319V35.4H350.319ZM350.319 33.6C350.319 32.1025 350.137 30.7774 349.634 29.6405C349.125 28.491 348.3 27.5646 347.07 26.8491C344.654 25.4431 340.666 24.85 334.369 24.85V25.85C340.671 25.85 344.408 26.4568 346.567 27.7134C347.625 28.3291 348.3 29.0996 348.719 30.0455C349.144 31.0038 349.319 32.1725 349.319 33.6H350.319ZM334.369 24.85C329.042 24.85 325.606 25.296 323.492 26.2641C322.419 26.7553 321.661 27.3918 321.179 28.1927C320.698 28.9904 320.519 29.9039 320.519 30.9H321.519C321.519 30.0211 321.677 29.3034 322.035 28.7089C322.392 28.1175 322.975 27.6009 323.908 27.1733C325.806 26.304 329.046 25.85 334.369 25.85V24.85ZM320.519 30.9C320.519 31.7382 320.648 32.4903 320.962 33.1604C321.277 33.8345 321.765 34.3959 322.436 34.8706C323.753 35.8027 325.802 36.4165 328.73 36.9421L328.907 35.9579C325.986 35.4335 324.134 34.8473 323.014 34.0544C322.466 33.6666 322.101 33.2342 321.868 32.7365C321.633 32.2347 321.519 31.6368 321.519 30.9H320.519ZM328.731 36.9423L350.631 40.8423L350.806 39.8577L328.906 35.9577L328.731 36.9423ZM350.632 40.8424C361.215 42.7055 368.485 46.3824 373.111 51.4677C377.732 56.547 379.769 63.0904 379.769 70.8H380.769C380.769 62.9096 378.68 56.103 373.851 50.7948C369.027 45.4926 361.523 41.7445 350.805 39.8576L350.632 40.8424ZM379.769 70.8C379.769 79.4575 376.812 87.4861 370.169 93.3566C363.519 99.2326 353.115 103 338.119 103V104C353.273 104 363.943 100.192 370.831 94.1059C377.725 88.0139 380.769 79.6925 380.769 70.8H379.769ZM461.893 69.9V70.4H462.313L462.386 69.9869L461.893 69.9ZM411.943 69.9V69.4H411.415L411.444 69.9272L411.943 69.9ZM434.293 75V74.5H433.793V75H434.293ZM462.193 75H462.693V74.5H462.193V75ZM411.943 54.6L411.445 54.5644L411.406 55.1H411.943V54.6ZM436.243 54.6V55.1H436.759L436.743 54.5849L436.243 54.6ZM424.843 103C412.416 103 402.77 99.3557 396.231 92.7239C389.69 86.091 386.193 76.4059 386.193 64.2H385.193C385.193 76.5941 388.747 86.559 395.519 93.4261C402.291 100.294 412.221 104 424.843 104V103ZM386.193 64.2C386.193 51.5421 389.766 41.4809 396.458 34.5857C403.149 27.6928 413.018 23.9 425.743 23.9V22.9C412.818 22.9 402.663 26.7571 395.741 33.8893C388.821 41.0191 385.193 51.3579 385.193 64.2H386.193ZM425.743 23.9C438.096 23.9 447.294 27.5069 453.403 33.5978C459.513 39.6896 462.593 48.3254 462.593 58.5H463.593C463.593 48.1246 460.449 39.2104 454.109 32.8897C447.768 26.5681 438.291 22.9 425.743 22.9V23.9ZM462.593 58.5C462.593 62.6527 461.851 67.2654 461.401 69.8131L462.386 69.9869C462.836 67.4346 463.593 62.7473 463.593 58.5H462.593ZM461.893 69.4H411.943V70.4H461.893V69.4ZM411.444 69.9272C411.67 74.0673 412.424 76.8267 414.602 78.491C416.74 80.1249 420.132 80.6 425.293 80.6V79.6C420.104 79.6 417.046 79.1001 415.209 77.6965C413.413 76.3233 412.667 73.9827 412.443 69.8728L411.444 69.9272ZM425.293 80.6C428.674 80.6 431.038 80.2671 432.564 79.4325C433.344 79.0063 433.913 78.4458 434.28 77.7352C434.645 77.0312 434.793 76.2144 434.793 75.3H433.793C433.793 76.1106 433.661 76.7563 433.392 77.2758C433.127 77.7886 432.711 78.2125 432.085 78.555C430.799 79.2579 428.663 79.6 425.293 79.6V80.6ZM434.793 75.3V75H433.793V75.3H434.793ZM434.293 75.5H462.193V74.5H434.293V75.5ZM461.693 75V76.8H462.693V75H461.693ZM461.693 76.8C461.693 84.4286 458.179 90.9582 451.83 95.5962C445.469 100.242 436.244 103 424.843 103V104C436.393 104 445.843 101.208 452.42 96.4038C459.007 91.5918 462.693 84.7714 462.693 76.8H461.693ZM424.243 45.1C419.863 45.1 416.763 45.7752 414.698 47.3389C412.606 48.9232 411.675 51.3405 411.445 54.5644L412.442 54.6356C412.662 51.5595 413.531 49.4768 415.301 48.1361C417.099 46.7747 419.924 46.1 424.243 46.1V45.1ZM411.943 55.1H436.243V54.1H411.943V55.1ZM436.743 54.5849C436.666 52.0318 435.966 49.627 434.008 47.8715C432.06 46.1244 428.955 45.1 424.243 45.1V46.1C428.832 46.1 431.651 47.1006 433.341 48.616C435.021 50.123 435.671 52.2182 435.744 54.6151L436.743 54.5849ZM497.421 102V102.5H497.921V102H497.421ZM469.371 102H468.871V102.5H469.371V102ZM469.371 24.9V24.4H468.871V24.9H469.371ZM495.621 24.9H496.121V24.4H495.621V24.9ZM495.621 36.6H495.121V37.1H495.621V36.6ZM496.971 36.6V37.1H497.259L497.404 36.8509L496.971 36.6ZM538.971 62.1V62.6H539.471V62.1H538.971ZM510.771 62.1H510.271V62.6H510.771V62.1ZM497.421 101.5H469.371V102.5H497.421V101.5ZM469.871 102V24.9H468.871V102H469.871ZM469.371 25.4H495.621V24.4H469.371V25.4ZM495.121 24.9V36.6H496.121V24.9H495.121ZM495.621 37.1H496.971V36.1H495.621V37.1ZM497.404 36.8509C501.685 29.4696 508.887 23.9 518.871 23.9V22.9C508.455 22.9 500.957 28.7304 496.539 36.3491L497.404 36.8509ZM518.871 23.9C526.179 23.9 531.035 26.2546 534.088 30.3906C537.163 34.5574 538.471 40.6161 538.471 48.15H539.471C539.471 40.5339 538.155 34.2176 534.892 29.7968C531.607 25.3454 526.414 22.9 518.871 22.9V23.9ZM538.471 48.15V62.1H539.471V48.15H538.471ZM538.971 61.6H510.771V62.6H538.971V61.6ZM511.271 62.1V54.45H510.271V62.1H511.271ZM511.271 54.45C511.271 53.0149 511.205 51.8064 511.016 50.8041C510.827 49.8001 510.508 48.9709 509.977 48.3212C508.902 47.0045 507.109 46.6 504.471 46.6V47.6C507.083 47.6 508.44 48.0205 509.203 48.9538C509.591 49.4291 509.862 50.0811 510.034 50.9896C510.205 51.8999 510.271 53.0351 510.271 54.45H511.271ZM504.471 46.6C503.303 46.6 502.248 46.6372 501.328 46.7869C500.406 46.9369 499.587 47.2044 498.912 47.6869C497.528 48.675 496.921 50.4263 496.921 53.25H497.921C497.921 50.5237 498.514 49.2 499.493 48.5006C499.999 48.1394 500.652 47.91 501.488 47.774C502.325 47.6378 503.314 47.6 504.471 47.6V46.6ZM496.921 53.25V102H497.921V53.25H496.921ZM602.439 102V102.5H602.785L602.907 102.176L602.439 102ZM566.439 102L565.97 102.175L566.092 102.5H566.439V102ZM537.639 24.9V24.4H536.918L537.17 25.075L537.639 24.9ZM569.139 24.9L569.618 24.7565L569.511 24.4H569.139V24.9ZM583.839 73.95L583.36 74.0935L583.467 74.45H583.839V73.95ZM585.789 73.95V74.45H586.161L586.268 74.0935L585.789 73.95ZM600.489 24.9V24.4H600.117L600.01 24.7565L600.489 24.9ZM631.389 24.9L631.857 25.0758L632.11 24.4H631.389V24.9ZM602.439 101.5H566.439V102.5H602.439V101.5ZM566.907 101.825L538.107 24.725L537.17 25.075L565.97 102.175L566.907 101.825ZM537.639 25.4H569.139V24.4H537.639V25.4ZM568.66 25.0435L583.36 74.0935L584.318 73.8065L569.618 24.7565L568.66 25.0435ZM583.839 74.45H585.789V73.45H583.839V74.45ZM586.268 74.0935L600.968 25.0435L600.01 24.7565L585.31 73.8065L586.268 74.0935ZM600.489 25.4H631.389V24.4H600.489V25.4ZM630.921 24.7242L601.971 101.824L602.907 102.176L631.857 25.0758L630.921 24.7242ZM659.872 18V18.5H660.372V18H659.872ZM631.822 18H631.322V18.5H631.822V18ZM631.822 1.5V0.999996H631.322V1.5H631.822ZM659.872 1.5H660.372V0.999996H659.872V1.5ZM660.022 102V102.5H660.522V102H660.022ZM631.822 102H631.322V102.5H631.822V102ZM631.822 24.9V24.4H631.322V24.9H631.822ZM660.022 24.9H660.522V24.4H660.022V24.9ZM659.872 17.5H631.822V18.5H659.872V17.5ZM632.322 18V1.5H631.322V18H632.322ZM631.822 2H659.872V0.999996H631.822V2ZM659.372 1.5V18H660.372V1.5H659.372ZM660.022 101.5H631.822V102.5H660.022V101.5ZM632.322 102V24.9H631.322V102H632.322ZM631.822 25.4H660.022V24.4H631.822V25.4ZM659.522 24.9V102H660.522V24.9H659.522ZM744.207 59.25V59.75H744.707V59.25H744.207ZM716.007 59.25H715.507V59.75H716.007V59.25ZM716.007 67.65V67.15H715.507V67.65H716.007ZM744.207 67.65H744.707V67.15H744.207V67.65ZM706.707 103C693.901 103 683.953 99.3532 677.208 92.7185C670.464 86.0848 666.857 76.4015 666.857 64.2H665.857C665.857 76.5985 669.526 86.5652 676.507 93.4315C683.487 100.297 693.714 104 706.707 104V103ZM666.857 64.2C666.857 51.5435 670.467 41.4827 677.215 34.5872C683.961 27.6934 693.907 23.9 706.707 23.9V22.9C693.708 22.9 683.479 26.7566 676.5 33.8878C669.523 41.0173 665.857 51.3565 665.857 64.2H666.857ZM706.707 23.9C717.722 23.9 726.972 26.8768 733.46 32.3509C739.938 37.8165 743.707 45.8093 743.707 55.95H744.707C744.707 45.5407 740.827 37.2584 734.105 31.5866C727.393 25.9232 717.893 22.9 706.707 22.9V23.9ZM743.707 55.95V59.25H744.707V55.95H743.707ZM744.207 58.75H716.007V59.75H744.207V58.75ZM716.507 59.25V56.85H715.507V59.25H716.507ZM716.507 56.85C716.507 53.6159 715.658 51.301 713.786 49.8204C711.944 48.3627 709.213 47.8 705.657 47.8V48.8C709.151 48.8 711.596 49.3623 713.166 50.6046C714.707 51.824 715.507 53.7841 715.507 56.85H716.507ZM705.657 47.8C701.433 47.8 698.371 48.4714 696.418 50.8923C694.498 53.2728 693.757 57.2255 693.757 63.45H694.757C694.757 57.2245 695.517 53.6022 697.197 51.5202C698.844 49.4786 701.482 48.8 705.657 48.8V47.8ZM693.757 63.45C693.757 69.6745 694.498 73.6272 696.418 76.0077C698.371 78.4286 701.433 79.1 705.657 79.1V78.1C701.482 78.1 698.844 77.4214 697.197 75.3798C695.517 73.2978 694.757 69.6755 694.757 63.45H693.757ZM705.657 79.1C709.213 79.1 711.944 78.5373 713.786 77.0796C715.658 75.599 716.507 73.2841 716.507 70.05H715.507C715.507 73.1159 714.707 75.076 713.166 76.2954C711.596 77.5377 709.151 78.1 705.657 78.1V79.1ZM716.507 70.05V67.65H715.507V70.05H716.507ZM716.007 68.15H744.207V67.15H716.007V68.15ZM743.707 67.65V70.95H744.707V67.65H743.707ZM743.707 70.95C743.707 81.0907 739.938 89.0835 733.46 94.5491C726.972 100.023 717.722 103 706.707 103V104C717.893 104 727.393 100.977 734.105 95.3134C740.827 89.6416 744.707 81.3593 744.707 70.95H743.707ZM826.346 69.9V70.4H826.766L826.839 69.9869L826.346 69.9ZM776.396 69.9V69.4H775.868L775.897 69.9272L776.396 69.9ZM798.746 75V74.5H798.246V75H798.746ZM826.646 75H827.146V74.5H826.646V75ZM776.396 54.6L775.898 54.5644L775.859 55.1H776.396V54.6ZM800.696 54.6V55.1H801.212L801.196 54.5849L800.696 54.6ZM789.297 103C776.869 103 767.223 99.3557 760.684 92.7239C754.143 86.091 750.646 76.4059 750.646 64.2H749.646C749.646 76.5941 753.2 86.559 759.972 93.4261C766.745 100.294 776.674 104 789.297 104V103ZM750.646 64.2C750.646 51.5421 754.219 41.4809 760.911 34.5857C767.602 27.6928 777.472 23.9 790.196 23.9V22.9C777.271 22.9 767.116 26.7571 760.194 33.8893C753.274 41.0191 749.646 51.3579 749.646 64.2H750.646ZM790.196 23.9C802.549 23.9 811.747 27.5069 817.856 33.5978C823.966 39.6896 827.047 48.3254 827.047 58.5H828.047C828.047 48.1246 824.902 39.2104 818.562 32.8897C812.221 26.5681 802.744 22.9 790.196 22.9V23.9ZM827.047 58.5C827.047 62.6527 826.304 67.2654 825.854 69.8131L826.839 69.9869C827.289 67.4346 828.047 62.7473 828.047 58.5H827.047ZM826.346 69.4H776.396V70.4H826.346V69.4ZM775.897 69.9272C776.123 74.0673 776.877 76.8267 779.055 78.491C781.194 80.1249 784.585 80.6 789.746 80.6V79.6C784.558 79.6 781.499 79.1001 779.663 77.6965C777.866 76.3233 777.12 73.9827 776.896 69.8728L775.897 69.9272ZM789.746 80.6C793.127 80.6 795.491 80.2671 797.018 79.4325C797.797 79.0063 798.366 78.4458 798.734 77.7352C799.098 77.0312 799.246 76.2144 799.246 75.3H798.246C798.246 76.1106 798.114 76.7563 797.845 77.2758C797.58 77.7886 797.165 78.2125 796.538 78.555C795.252 79.2579 793.116 79.6 789.746 79.6V80.6ZM799.246 75.3V75H798.246V75.3H799.246ZM798.746 75.5H826.646V74.5H798.746V75.5ZM826.146 75V76.8H827.146V75H826.146ZM826.146 76.8C826.146 84.4286 822.633 90.9582 816.283 95.5962C809.922 100.242 800.697 103 789.297 103V104C800.846 104 810.296 101.208 816.873 96.4038C823.46 91.5918 827.146 84.7714 827.146 76.8H826.146ZM788.696 45.1C784.316 45.1 781.216 45.7752 779.151 47.3389C777.059 48.9232 776.128 51.3405 775.898 54.5644L776.895 54.6356C777.115 51.5595 777.984 49.4768 779.755 48.1361C781.552 46.7747 784.377 46.1 788.696 46.1V45.1ZM776.396 55.1H800.696V54.1H776.396V55.1ZM801.196 54.5849C801.119 52.0318 800.419 49.627 798.462 47.8715C796.514 46.1244 793.408 45.1 788.696 45.1V46.1C793.285 46.1 796.104 47.1006 797.794 48.616C799.474 50.123 800.124 52.2182 800.197 54.6151L801.196 54.5849ZM833.196 75.45V74.95H832.696V75.45H833.196ZM859.446 75.45H859.946V74.95H859.446V75.45ZM871.596 74.7L871.688 74.2084L871.686 74.2082L871.596 74.7ZM856.896 72L856.805 72.4915L856.806 72.4918L856.896 72ZM902.046 51.9V52.4H902.546V51.9H902.046ZM875.646 51.9H875.146V52.4H875.646V51.9ZM864.546 52.2L864.442 52.6891L864.444 52.6895L864.546 52.2ZM881.796 55.8L881.898 55.3105L881.796 55.8ZM870.246 103C857.549 103 848.415 100.496 842.465 95.886C836.538 91.2944 833.696 84.5562 833.696 75.9H832.696C832.696 84.7938 835.629 91.8556 841.852 96.6765C848.052 101.479 857.444 104 870.246 104V103ZM833.696 75.9V75.45H832.696V75.9H833.696ZM833.196 75.95H859.446V74.95H833.196V75.95ZM858.946 75.45V77.4H859.946V75.45H858.946ZM858.946 77.4C858.946 78.4649 859.03 79.3966 859.34 80.1771C859.661 80.9831 860.211 81.5974 861.072 82.0439C861.912 82.4793 863.038 82.7505 864.516 82.9172C865.999 83.0844 867.878 83.15 870.246 83.15V82.15C867.889 82.15 866.055 82.0844 864.628 81.9235C863.195 81.7619 862.212 81.5082 861.533 81.1561C860.875 80.8151 860.497 80.3794 860.269 79.8073C860.031 79.2096 859.946 78.4351 859.946 77.4H858.946ZM870.246 83.15C872.201 83.15 873.73 83.1032 874.922 82.9859C876.107 82.8693 876.999 82.6798 877.658 82.3717C878.34 82.0525 878.775 81.6038 879.02 81.0037C879.252 80.4356 879.296 79.769 879.296 79.05H878.296C878.296 79.756 878.247 80.2519 878.094 80.626C877.955 80.968 877.714 81.2412 877.234 81.4658C876.73 81.7015 875.973 81.8776 874.824 81.9907C873.681 82.1031 872.191 82.15 870.246 82.15V83.15ZM879.296 79.05C879.296 78.4336 879.25 77.8583 879.042 77.3404C878.827 76.804 878.456 76.3708 877.885 76.0042C877.327 75.6463 876.574 75.349 875.578 75.0673C874.579 74.7845 873.305 74.5093 871.688 74.2084L871.505 75.1916C873.112 75.4907 874.351 75.7593 875.306 76.0295C876.265 76.301 876.909 76.5662 877.345 76.8458C877.767 77.1167 877.987 77.396 878.114 77.7127C878.249 78.048 878.296 78.4664 878.296 79.05H879.296ZM871.686 74.2082L856.986 71.5082L856.806 72.4918L871.506 75.1918L871.686 74.2082ZM856.988 71.5085C849.369 70.0892 843.48 67.8988 839.496 64.262C835.535 60.6465 833.396 55.544 833.396 48.15H832.396C832.396 55.756 834.607 61.1535 838.821 65.0005C843.012 68.8262 849.124 71.0608 856.805 72.4915L856.988 71.5085ZM833.396 48.15C833.396 41.1735 836.217 35.1353 841.826 30.8278C847.448 26.5096 855.916 23.9 867.246 23.9V22.9C855.776 22.9 847.069 25.5404 841.217 30.0347C835.35 34.5397 832.396 40.8765 832.396 48.15H833.396ZM867.246 23.9C877.082 23.9 885.672 26.0622 891.787 30.2803C897.882 34.4845 901.546 40.7459 901.546 49.05H902.546C902.546 40.4041 898.71 33.8405 892.355 29.4572C886.02 25.0877 877.21 22.9 867.246 22.9V23.9ZM901.546 49.05V51.9H902.546V49.05H901.546ZM902.046 51.4H875.646V52.4H902.046V51.4ZM876.146 51.9V50.55H875.146V51.9H876.146ZM876.146 50.55C876.146 48.1684 875.647 46.4487 874.047 45.3894C872.52 44.3779 870.087 44.05 866.496 44.05V45.05C870.105 45.05 872.247 45.3971 873.495 46.2231C874.67 47.0013 875.146 48.2816 875.146 50.55H876.146ZM866.496 44.05C863.122 44.05 861.085 44.3811 859.889 45.0735C859.269 45.4329 858.868 45.8922 858.633 46.4413C858.404 46.9757 858.346 47.5611 858.346 48.15H859.346C859.346 47.6139 859.401 47.1868 859.552 46.8352C859.696 46.4984 859.942 46.1983 860.39 45.939C861.332 45.3939 863.12 45.05 866.496 45.05V44.05ZM858.346 48.15C858.346 48.6652 858.395 49.1652 858.573 49.6352C858.755 50.1149 859.061 50.5341 859.53 50.9047C860.436 51.6215 861.966 52.1639 864.442 52.6891L864.65 51.7109C862.176 51.1861 860.856 50.6785 860.15 50.1203C859.812 49.8534 859.621 49.5788 859.508 49.2804C859.391 48.9723 859.346 48.6098 859.346 48.15H858.346ZM864.444 52.6895L881.694 56.2895L881.898 55.3105L864.648 51.7105L864.444 52.6895ZM881.694 56.2895C890.283 58.0819 895.942 60.6424 899.458 64.2312C902.955 67.8011 904.396 72.4561 904.396 78.6H905.396C905.396 72.2939 903.912 67.3489 900.172 63.5313C896.45 59.7326 890.559 57.118 881.898 55.3105L881.694 56.2895ZM904.396 78.6C904.396 85.7227 901.466 91.7983 895.763 96.1073C890.046 100.427 881.502 103 870.246 103V104C881.64 104 890.421 101.398 896.366 96.9052C902.326 92.4017 905.396 86.0272 905.396 78.6H904.396Z" fill="#FF931E"/>
</svg>
