<svg width="587" height="156" viewBox="0 0 587 156" fill="none" xmlns="http://www.w3.org/2000/svg">
<path d="M0.528001 153H-0.471999V154H0.528001V153ZM0.528001 2.92V1.92H-0.471999V2.92H0.528001ZM93.712 72.36L93.5893 71.3676L92.712 71.476V72.36H93.712ZM93.712 74.6H92.712V75.5287L93.6381 75.5973L93.712 74.6ZM34.128 33.16V32.16H33.128V33.16H34.128ZM34.128 62.28H33.128V63.28H34.128V62.28ZM34.128 89.608V88.608H33.128V89.608H34.128ZM34.128 122.76H33.128V123.76H34.128V122.76ZM78.032 152H0.528001V154H78.032V152ZM1.528 153V2.92H-0.471999V153H1.528ZM0.528001 3.92H74.448V1.92H0.528001V3.92ZM74.448 3.92C90.3767 3.92 102.443 6.76623 110.508 12.6861C118.513 18.5617 122.728 27.5801 122.728 40.328H124.728C124.728 27.0919 120.319 17.4063 111.692 11.0739C103.125 4.78577 90.5513 1.92 74.448 1.92V3.92ZM122.728 40.328C122.728 49.0974 120.265 56.2281 115.459 61.4638C110.649 66.7039 103.39 70.1562 93.5893 71.3676L93.8347 73.3524C103.97 72.0998 111.719 68.4961 116.933 62.8162C122.151 57.1319 124.728 49.4785 124.728 40.328H122.728ZM92.712 72.36V74.6H94.712V72.36H92.712ZM93.6381 75.5973C105.533 76.4784 114.291 80.6514 120.078 86.9789C125.868 93.3103 128.776 101.9 128.776 111.784H130.776C130.776 101.508 127.748 92.4017 121.554 85.6291C115.357 78.8526 106.083 74.5136 93.7859 73.6027L93.6381 75.5973ZM128.776 111.784C128.776 124.193 124.504 134.193 116.12 141.113C107.707 148.055 95.029 152 78.032 152V154C95.307 154 108.501 149.993 117.392 142.655C126.312 135.295 130.776 124.686 130.776 111.784H128.776ZM33.128 33.16V62.28H35.128V33.16H33.128ZM34.128 63.28H72.208V61.28H34.128V63.28ZM72.208 63.28C78.48 63.28 83.2667 62.6252 86.467 60.2557C89.7579 57.8192 91.128 53.7777 91.128 47.72H89.128C89.128 53.5343 87.8101 56.7728 85.277 58.6483C82.6533 60.5908 78.48 61.28 72.208 61.28V63.28ZM91.128 47.72C91.128 41.5452 89.6991 37.5004 86.3743 35.0939C83.1466 32.7577 78.3617 32.16 72.208 32.16V34.16C78.3743 34.16 82.5494 34.7943 85.2017 36.7141C87.7569 38.5636 89.128 41.7988 89.128 47.72H91.128ZM72.208 32.16H34.128V34.16H72.208V32.16ZM33.128 89.608V122.76H35.128V89.608H33.128ZM34.128 123.76H76.912V121.76H34.128V123.76ZM76.912 123.76C83.0593 123.76 88.1277 123.22 91.6372 120.687C95.2406 118.086 96.952 113.595 96.952 106.408H94.952C94.952 113.333 93.3034 117.018 90.4668 119.065C87.5363 121.18 83.0847 121.76 76.912 121.76V123.76ZM96.952 106.408C96.952 99.0169 95.3072 94.4107 91.7337 91.7463C88.2464 89.1461 83.1659 88.608 76.912 88.608V90.608C83.2021 90.608 87.6416 91.1899 90.5383 93.3497C93.3488 95.4453 94.952 99.2392 94.952 106.408H96.952ZM76.912 88.608H34.128V90.608H76.912V88.608ZM184.472 153V154H185.472V153H184.472ZM150.872 153H149.872V154H150.872V153ZM150.872 2.92V1.92H149.872V2.92H150.872ZM237.784 89.832L237.697 88.8358L236.784 88.9152V89.832H237.784ZM237.784 92.072H236.784V92.8087L237.487 93.0271L237.784 92.072ZM262.872 115.368L263.764 114.917L263.763 114.914L262.872 115.368ZM281.912 153V154H283.538L282.804 152.549L281.912 153ZM242.712 153L241.821 153.454L242.099 154H242.712V153ZM225.016 118.28L225.907 117.826L225.904 117.821L225.016 118.28ZM184.472 99.688V98.688H183.472V99.688H184.472ZM184.472 33.16V32.16H183.472V33.16H184.472ZM184.472 71.912H183.472V72.912H184.472V71.912ZM184.472 152H150.872V154H184.472V152ZM151.872 153V2.92H149.872V153H151.872ZM150.872 3.92H219.864V1.92H150.872V3.92ZM219.864 3.92C237.646 3.92 251.333 8.03383 260.557 15.6203C269.751 23.1827 274.64 34.3013 274.64 48.616H276.64C276.64 33.8107 271.56 22.0813 261.827 14.0757C252.123 6.09416 237.921 1.92 219.864 1.92V3.92ZM274.64 48.616C274.64 60.6658 271.656 70.1407 265.627 76.8728C259.601 83.6012 250.407 87.7305 237.697 88.8358L237.87 90.8282C250.92 89.6935 260.654 85.4228 267.117 78.2071C273.575 70.9953 276.64 60.9821 276.64 48.616H274.64ZM236.784 89.832V92.072H238.784V89.832H236.784ZM237.487 93.0271C243.84 94.9985 248.513 97.8865 252.311 101.658C256.122 105.441 259.089 110.15 261.981 115.822L263.763 114.914C260.83 109.162 257.749 104.239 253.72 100.238C249.679 96.2255 244.72 93.1775 238.08 91.1169L237.487 93.0271ZM261.979 115.819L281.019 153.451L282.804 152.549L263.764 114.917L261.979 115.819ZM281.912 152H242.712V154H281.912V152ZM243.603 152.546L225.907 117.826L224.125 118.734L241.821 153.454L243.603 152.546ZM225.904 117.821C222.549 111.335 219.662 106.494 215.516 103.318C211.324 100.107 205.977 98.688 197.912 98.688V100.688C205.751 100.688 210.595 102.069 214.3 104.906C218.049 107.778 220.762 112.233 224.128 118.739L225.904 117.821ZM197.912 98.688H184.472V100.688H197.912V98.688ZM183.472 99.688V153H185.472V99.688H183.472ZM183.472 33.16V71.912H185.472V33.16H183.472ZM184.472 72.912H221.432V70.912H184.472V72.912ZM221.432 72.912C229.308 72.912 234.863 71.7457 238.409 68.4439C241.977 65.1219 243.264 59.8782 243.264 52.424H241.264C241.264 59.7538 239.974 64.254 237.046 66.9801C234.097 69.7262 229.235 70.912 221.432 70.912V72.912ZM243.264 52.424C243.264 45.1854 241.974 40.0029 238.409 36.6841C234.866 33.3854 229.318 32.16 221.432 32.16V34.16C229.226 34.16 234.093 35.3985 237.046 38.1479C239.978 40.8771 241.264 45.3266 241.264 52.424H243.264ZM221.432 32.16H184.472V34.16H221.432V32.16ZM321.267 153V154H321.964L322.205 153.346L321.267 153ZM286.323 153L285.385 152.654L284.889 154H286.323V153ZM341.651 2.92V1.92H340.954L340.713 2.5741L341.651 2.92ZM390.483 2.92L391.421 2.5741L391.18 1.92H390.483V2.92ZM445.811 153V154H447.245L446.749 152.654L445.811 153ZM409.299 153L408.359 153.341L408.598 154H409.299V153ZM397.203 119.624L398.143 119.283L397.904 118.624H397.203V119.624ZM333.587 119.624V118.624H332.89L332.649 119.278L333.587 119.624ZM353.075 66.312L354.014 66.6552L354.018 66.6436L354.022 66.632L353.075 66.312ZM344.563 89.608L343.624 89.2648L343.133 90.608H344.563V89.608ZM386.227 89.608V90.608H387.657L387.166 89.2648L386.227 89.608ZM377.715 66.312L376.764 66.6207L376.769 66.638L376.776 66.6552L377.715 66.312ZM366.739 32.488L367.69 32.1793L367.466 31.488H366.739V32.488ZM364.499 32.488V31.488H363.781L363.552 32.168L364.499 32.488ZM321.267 152H286.323V154H321.267V152ZM287.261 153.346L342.589 3.2659L340.713 2.5741L285.385 152.654L287.261 153.346ZM341.651 3.92H390.483V1.92H341.651V3.92ZM389.545 3.2659L444.873 153.346L446.749 152.654L391.421 2.5741L389.545 3.2659ZM445.811 152H409.299V154H445.811V152ZM410.239 152.659L398.143 119.283L396.263 119.965L408.359 153.341L410.239 152.659ZM397.203 118.624H333.587V120.624H397.203V118.624ZM332.649 119.278L320.329 152.654L322.205 153.346L334.525 119.97L332.649 119.278ZM352.136 65.9688L343.624 89.2648L345.502 89.9512L354.014 66.6552L352.136 65.9688ZM344.563 90.608H386.227V88.608H344.563V90.608ZM387.166 89.2648L378.654 65.9688L376.776 66.6552L385.288 89.9512L387.166 89.2648ZM378.666 66.0033L367.69 32.1793L365.788 32.7966L376.764 66.6207L378.666 66.0033ZM366.739 31.488H364.499V33.488H366.739V31.488ZM363.552 32.168L352.128 65.992L354.022 66.632L365.446 32.808L363.552 32.168ZM490.409 153V154H491.409V153H490.409ZM456.809 153H455.809V154H456.809V153ZM456.809 2.92V1.92H455.809V2.92H456.809ZM492.649 2.92L493.489 2.37747L493.194 1.92H492.649V2.92ZM541.257 78.184L542.106 77.6557L542.102 77.6485L542.097 77.6415L541.257 78.184ZM553.801 98.344L552.952 98.8723L553.246 99.344H553.801V98.344ZM556.041 98.344V99.344H557.064L557.041 98.3218L556.041 98.344ZM555.593 78.184H554.593V78.1951L554.594 78.2062L555.593 78.184ZM555.593 2.92V1.92H554.593V2.92H555.593ZM589.193 2.92H590.193V1.92H589.193V2.92ZM589.193 153V154H590.193V153H589.193ZM553.353 153L552.517 153.549L552.813 154H553.353V153ZM506.761 81.992L505.916 82.5257L505.92 82.5332L505.925 82.5406L506.761 81.992ZM492.201 58.92L493.047 58.3863L492.753 57.92H492.201V58.92ZM489.961 58.92V57.92H488.942L488.961 58.9394L489.961 58.92ZM490.409 81.992H491.409V81.9823L491.409 81.9726L490.409 81.992ZM490.409 152H456.809V154H490.409V152ZM457.809 153V2.92H455.809V153H457.809ZM456.809 3.92H492.649V1.92H456.809V3.92ZM491.809 3.46252L540.417 78.7265L542.097 77.6415L493.489 2.37747L491.809 3.46252ZM540.408 78.7123L552.952 98.8723L554.65 97.8157L542.106 77.6557L540.408 78.7123ZM553.801 99.344H556.041V97.344H553.801V99.344ZM557.041 98.3218L556.593 78.1618L554.594 78.2062L555.042 98.3662L557.041 98.3218ZM556.593 78.184V2.92H554.593V78.184H556.593ZM555.593 3.92H589.193V1.92H555.593V3.92ZM588.193 2.92V153H590.193V2.92H588.193ZM589.193 152H553.353V154H589.193V152ZM554.189 152.451L507.597 81.4434L505.925 82.5406L552.517 153.549L554.189 152.451ZM507.607 81.4583L493.047 58.3863L491.356 59.4537L505.916 82.5257L507.607 81.4583ZM492.201 57.92H489.961V59.92H492.201V57.92ZM488.961 58.9394L489.409 82.0114L491.409 81.9726L490.961 58.9006L488.961 58.9394ZM489.409 81.992V153H491.409V81.992H489.409ZM614.809 153H613.809V154H614.809V153ZM614.809 2.92V1.92H613.809V2.92H614.809ZM648.409 33.16V32.16H647.409V33.16H648.409ZM648.409 122.76H647.409V123.76H648.409V122.76ZM672.153 152H614.809V154H672.153V152ZM615.809 153V2.92H613.809V153H615.809ZM614.809 3.92H672.153V1.92H614.809V3.92ZM672.153 3.92C696.042 3.92 715.202 10.8616 728.385 23.5213C741.562 36.1759 748.881 54.6541 748.881 77.96H750.881C750.881 54.2259 743.417 35.1841 729.77 22.0787C716.128 8.97839 696.425 1.92 672.153 1.92V3.92ZM748.881 77.96C748.881 101.266 741.562 119.744 728.385 132.399C715.202 145.058 696.042 152 672.153 152V154C696.425 154 716.128 146.942 729.77 133.841C743.417 120.736 750.881 101.694 750.881 77.96H748.881ZM671.705 32.16H648.409V34.16H671.705V32.16ZM647.409 33.16V122.76H649.409V33.16H647.409ZM648.409 123.76H671.705V121.76H648.409V123.76ZM671.705 123.76C686.975 123.76 697.871 121.474 704.894 114.422C711.912 107.374 714.817 95.8149 714.817 77.96H712.817C712.817 95.7211 709.898 106.562 703.477 113.01C697.06 119.454 686.899 121.76 671.705 121.76V123.76ZM714.817 77.96C714.817 60.1051 711.912 48.5458 704.894 41.4984C697.871 34.446 686.975 32.16 671.705 32.16V34.16C686.899 34.16 697.06 36.466 703.477 42.9096C709.898 49.3582 712.817 60.1989 712.817 77.96H714.817ZM839.39 154.24C817.227 154.24 799.476 146.712 787.261 133.478C775.036 120.234 768.262 101.177 768.262 77.96H766.262C766.262 101.559 773.152 121.142 785.791 134.834C798.439 148.536 816.753 156.24 839.39 156.24V154.24ZM768.262 77.96C768.262 54.7432 775.036 35.6857 787.261 22.4423C799.476 9.20838 817.227 1.68 839.39 1.68V-0.32C816.753 -0.32 798.439 7.38361 785.791 21.0857C773.152 34.7783 766.262 54.3608 766.262 77.96H768.262ZM839.39 1.68C861.552 1.68 879.246 9.20811 891.405 22.4406C903.574 35.6833 910.294 54.7411 910.294 77.96H912.294C912.294 54.3629 905.461 34.7807 892.878 21.0874C880.286 7.38389 862.027 -0.32 839.39 -0.32V1.68ZM910.294 77.96C910.294 101.179 903.574 120.237 891.405 133.479C879.246 146.712 861.552 154.24 839.39 154.24V156.24C862.027 156.24 880.286 148.536 892.878 134.833C905.461 121.139 912.294 101.557 912.294 77.96H910.294ZM839.39 123.76C852.353 123.76 861.754 121.345 867.843 114.196C873.887 107.101 876.454 95.5783 876.454 77.96H874.454C874.454 95.5097 871.868 106.387 866.32 112.9C860.818 119.359 852.187 121.76 839.39 121.76V123.76ZM876.454 77.96C876.454 60.3417 873.887 48.8189 867.843 41.7235C861.754 34.5751 852.353 32.16 839.39 32.16V34.16C852.187 34.16 860.818 36.5608 866.32 43.0205C871.868 49.5331 874.454 60.4103 874.454 77.96H876.454ZM839.39 32.16C826.426 32.16 816.973 34.5753 810.828 41.7199C804.725 48.8149 802.102 60.3381 802.102 77.96H804.102C804.102 60.4139 806.742 49.5371 812.344 43.0241C817.903 36.5607 826.593 34.16 839.39 34.16V32.16ZM802.102 77.96C802.102 95.5819 804.725 107.105 810.828 114.2C816.973 121.345 826.426 123.76 839.39 123.76V121.76C826.593 121.76 817.903 119.359 812.344 112.896C806.742 106.383 804.102 95.5061 804.102 77.96H802.102ZM965.065 153V154H966.065V153H965.065ZM931.466 153H930.466V154H931.466V153ZM931.466 2.92V1.92H930.466V2.92H931.466ZM967.305 2.92L968.146 2.37747L967.85 1.92H967.305V2.92ZM1015.91 78.184L1016.76 77.6557L1016.76 77.6485L1016.75 77.6415L1015.91 78.184ZM1028.46 98.344L1027.61 98.8723L1027.9 99.344H1028.46V98.344ZM1030.7 98.344V99.344H1031.72L1031.7 98.3218L1030.7 98.344ZM1030.25 78.184H1029.25V78.1951L1029.25 78.2062L1030.25 78.184ZM1030.25 2.92V1.92H1029.25V2.92H1030.25ZM1063.85 2.92H1064.85V1.92H1063.85V2.92ZM1063.85 153V154H1064.85V153H1063.85ZM1028.01 153L1027.17 153.549L1027.47 154H1028.01V153ZM981.417 81.992L980.572 82.5257L980.577 82.5332L980.581 82.5406L981.417 81.992ZM966.857 58.92L967.703 58.3863L967.409 57.92H966.857V58.92ZM964.617 58.92V57.92H963.598L963.618 58.9394L964.617 58.92ZM965.065 81.992H966.065V81.9823L966.065 81.9726L965.065 81.992ZM965.065 152H931.466V154H965.065V152ZM932.466 153V2.92H930.466V153H932.466ZM931.466 3.92H967.305V1.92H931.466V3.92ZM966.465 3.46252L1015.07 78.7265L1016.75 77.6415L968.146 2.37747L966.465 3.46252ZM1015.06 78.7123L1027.61 98.8723L1029.31 97.8157L1016.76 77.6557L1015.06 78.7123ZM1028.46 99.344H1030.7V97.344H1028.46V99.344ZM1031.7 98.3218L1031.25 78.1618L1029.25 78.2062L1029.7 98.3662L1031.7 98.3218ZM1031.25 78.184V2.92H1029.25V78.184H1031.25ZM1030.25 3.92H1063.85V1.92H1030.25V3.92ZM1062.85 2.92V153H1064.85V2.92H1062.85ZM1063.85 152H1028.01V154H1063.85V152ZM1028.85 152.451L982.254 81.4434L980.581 82.5406L1027.17 153.549L1028.85 152.451ZM982.263 81.4583L967.703 58.3863L966.012 59.4537L980.572 82.5257L982.263 81.4583ZM966.857 57.92H964.617V59.92H966.857V57.92ZM963.618 58.9394L964.066 82.0114L966.065 81.9726L965.617 58.9006L963.618 58.9394ZM964.065 81.992V153H966.065V81.992H964.065Z" fill="#666666"/>
</svg>
