<svg width="40" height="40" viewBox="0 0 40 40" fill="none" xmlns="http://www.w3.org/2000/svg">
<circle cx="20" cy="20" r="19.5" stroke="#FF931E"/>
<path d="M9 33V7H23.571C24.8151 7 25.9396 7.28476 26.9445 7.85429C27.9734 8.42381 28.7868 9.21619 29.385 10.2314C30.0071 11.2467 30.3181 12.4476 30.3181 13.8343C30.3181 14.6514 30.1626 15.4314 29.8516 16.1743C29.5644 16.9171 29.1457 17.5733 28.5954 18.1429C28.0691 18.7124 27.4589 19.1705 26.7651 19.5171C27.5786 19.8638 28.2964 20.359 28.9184 21.0029C29.5644 21.6467 30.0669 22.3895 30.4258 23.2314C30.8086 24.0733 31 24.9771 31 25.9429C31 27.3543 30.677 28.5924 30.031 29.6571C29.4089 30.7219 28.5715 31.5514 27.5188 32.1457C26.466 32.7152 25.2936 33 24.0016 33H9ZM15.0294 27.8371H22.4225C22.925 27.8371 23.3676 27.7133 23.7504 27.4657C24.1572 27.2181 24.4802 26.8838 24.7194 26.4629C24.9587 26.0419 25.0783 25.5838 25.0783 25.0886C25.0783 24.5686 24.9587 24.1105 24.7194 23.7143C24.4802 23.2933 24.1572 22.959 23.7504 22.7114C23.3676 22.4638 22.925 22.34 22.4225 22.34H15.0294V27.8371ZM15.0294 17.3629H21.8124C22.2909 17.3629 22.7096 17.2514 23.0685 17.0286C23.4513 16.781 23.7504 16.4714 23.9657 16.1C24.1811 15.7038 24.2887 15.2705 24.2887 14.8C24.2887 14.3048 24.1811 13.8714 23.9657 13.5C23.7504 13.1038 23.4513 12.7943 23.0685 12.5714C22.7096 12.3238 22.2909 12.2 21.8124 12.2H15.0294V17.3629Z" fill="white"/>
</svg>
